HIERARCHY
ROOT joint_Root
{
	OFFSET 0.0 0.0 0.0
	CHANNELS 6 Xposition Yposition Zposition Zrotation Xrotation Yrotation 
	JOINT Hips
	{
		OFFSET -17.1583 93.1646 452.98
		CHANNELS 6 Xposition Yposition Zposition Zrotation Xrotation Yrotation 
		JOINT Spine
		{
			OFFSET 15.7357 0.0 0.0
			CHANNELS 6 Xposition Yposition Zposition Zrotation Xrotation Yrotation 
			JOINT Chest
			{
				OFFSET 8.98455 -0.406207 0.0
				CHANNELS 6 Xposition Yposition Zposition Zrotation Xrotation Yrotation 
				JOINT Neck
				{
					OFFSET 16.3773 0.0 0.0
					CHANNELS 6 Xposition Yposition Zposition Zrotation Xrotation Yrotation 
					JOINT Head
					{
						OFFSET 6.45672 0.0 0.0
						CHANNELS 6 Xposition Yposition Zposition Zrotation Xrotation Yrotation 
						End Site
						{
							OFFSET 0.0 0.0 0.0
						}
					}
				}
				JOINT Shoulder_L
				{
					OFFSET 12.9942 -0.242716 4.98039
					CHANNELS 6 Xposition Yposition Zposition Zrotation Xrotation Yrotation 
					JOINT UpperArm_L
					{
						OFFSET 5.34809 0.0 0.0
						CHANNELS 6 Xposition Yposition Zposition Zrotation Xrotation Yrotation 
						JOINT LowerArm_L
						{
							OFFSET 24.3286 1.87007e-05 0.0
							CHANNELS 6 Xposition Yposition Zposition Zrotation Xrotation Yrotation 
							JOINT Hand_L
							{
								OFFSET 22.2916 0.0 0.0
								CHANNELS 6 Xposition Yposition Zposition Zrotation Xrotation Yrotation 
								End Site
								{
									OFFSET 0.0 0.0 0.0
								}
							}
						}
					}
				}
				JOINT Shoulder_R
				{
					OFFSET 12.9945 -0.242716 -4.98039
					CHANNELS 6 Xposition Yposition Zposition Zrotation Xrotation Yrotation 
					JOINT UpperArm_R
					{
						OFFSET -5.34813 0.0 0.0
						CHANNELS 6 Xposition Yposition Zposition Zrotation Xrotation Yrotation 
						JOINT LowerArm_R
						{
							OFFSET -24.3289 0.000322201 0.0
							CHANNELS 6 Xposition Yposition Zposition Zrotation Xrotation Yrotation 
							JOINT Hand_R
							{
								OFFSET -22.2915 -0.000108084 0.0
								CHANNELS 6 Xposition Yposition Zposition Zrotation Xrotation Yrotation 
								End Site
								{
									OFFSET 0.0 0.0 0.0
								}
							}
						}
					}
				}
			}
		}
		JOINT UpperLeg_L
		{
			OFFSET -2.19248 -6.46944 0.0
			CHANNELS 6 Xposition Yposition Zposition Zrotation Xrotation Yrotation 
			JOINT LowerLeg_L
			{
				OFFSET 39.0811 0.0 -1.23785e-05
				CHANNELS 6 Xposition Yposition Zposition Zrotation Xrotation Yrotation 
				JOINT Foot_L
				{
					OFFSET 40.9854 0.0 -1.26872e-05
					CHANNELS 6 Xposition Yposition Zposition Zrotation Xrotation Yrotation 
					JOINT Toes_L
					{
						OFFSET 11.7543 0.0 0.0
						CHANNELS 6 Xposition Yposition Zposition Zrotation Xrotation Yrotation 
						End Site
						{
							OFFSET 0.0 0.0 0.0
						}
					}
				}
			}
		}
		JOINT UpperLeg_R
		{
			OFFSET -2.19251 6.46944 0.0
			CHANNELS 6 Xposition Yposition Zposition Zrotation Xrotation Yrotation 
			JOINT LowerLeg_R
			{
				OFFSET -39.0811 -0.00228153 -0.0401928
				CHANNELS 6 Xposition Yposition Zposition Zrotation Xrotation Yrotation 
				JOINT Foot_R
				{
					OFFSET -40.9854 0.0 0.0
					CHANNELS 6 Xposition Yposition Zposition Zrotation Xrotation Yrotation 
					JOINT Toes_R
					{
						OFFSET -11.7543 0.0 0.0
						CHANNELS 6 Xposition Yposition Zposition Zrotation Xrotation Yrotation 
						End Site
						{
							OFFSET 0.0 0.0 0.0
						}
					}
				}
			}
		}
	}
}
MOTION
Frames:	4
Frame Time:	0.0333333
0.000000 0.000000 0.000000 0.000000 0.000000 -0.000000 -0.758101 92.752700 3.250540 89.352500 0.572246 1.379480 15.735700 0.000005 -0.000001 83.251800 87.585300 -74.477900 8.984550 -0.406207 -0.000000 -2.804540 -1.373280 17.516700 16.377300 -0.000001 -0.000001 0.177787 2.182510 6.538160 6.456720 -0.000001 -0.000000 2.935930 3.427700 19.537500 12.994200 -0.242716 4.980390 -86.595100 -6.630520 -62.738700 5.348090 -0.000007 -0.000001 -28.578900 -56.226100 -64.491700 24.328600 0.000019 0.000005 0.405836 28.636500 -0.846651 22.291600 -0.000001 0.000005 40.166500 4.474000 17.027700 12.994500 -0.242716 -4.980390 89.354200 2.029650 -72.347000 -5.348130 -0.000001 -0.000004 -63.026100 4.857450 -3.925020 -24.328900 0.000322 -0.000009 2.141010 7.910740 -15.203900 -22.291500 -0.000108 -0.000004 7.106500 5.219800 2.217920 -2.192480 -6.469440 -0.000000 -173.905000 -10.636300 3.105140 39.081100 -0.000007 -0.000012 0.029052 -0.121433 13.454700 40.985400 -0.000006 -0.000013 -0.127839 16.941100 -70.043300 11.754300 -0.000000 0.000003 -0.000784 0.179922 -9.278510 -2.192510 6.469440 -0.000001 176.625000 3.536060 -176.514000 -39.081100 -0.002282 -0.040193 0.038303 -0.154821 12.727800 -40.985400 0.000008 0.000006 -4.459150 2.689710 -70.368700 -11.754300 -0.000006 -0.000006 -0.013187 0.293750 -4.631950
0.000000 0.000000 0.000000 0.000000 0.000000 -0.000000 -0.731993 92.748700 3.230880 89.345100 0.551438 1.416090 15.735700 0.000005 -0.000001 83.232500 87.560900 -74.490700 8.984550 -0.406207 -0.000000 -2.757120 -1.374090 17.452700 16.377300 -0.000001 -0.000001 0.230447 2.234370 6.475750 6.456720 -0.000001 -0.000000 2.926530 3.485770 19.414200 12.994200 -0.242716 4.980390 -86.602100 -6.610770 -62.718000 5.348090 -0.000007 -0.000001 -28.733800 -56.277200 -64.451100 24.328600 0.000019 0.000005 0.415610 28.553600 -0.869356 22.291600 -0.000001 0.000005 39.915500 4.472100 17.058800 12.994500 -0.242716 -4.980390 89.369300 1.982440 -72.347800 -5.348130 -0.000001 -0.000004 -63.087600 4.951970 -3.873420 -24.328900 0.000322 -0.000009 2.105290 7.760490 -15.236100 -22.291500 -0.000108 -0.000004 6.911550 5.221960 2.162590 -2.192480 -6.469440 -0.000000 -173.927000 -10.509700 3.087890 39.081100 -0.000007 -0.000012 0.027839 -0.115784 13.519900 40.985400 -0.000006 -0.000013 -0.116369 16.824100 -69.980200 11.754300 -0.000000 0.000003 -0.000699 0.178657 -9.329890 -2.192510 6.469440 -0.000001 176.601000 3.588630 -176.523000 -39.081100 -0.002282 -0.040193 0.038515 -0.154998 12.788300 -40.985400 0.000008 0.000006 -4.511720 2.775240 -70.330700 -11.754300 -0.000006 -0.000006 -0.012860 0.291558 -4.721810
0.000000 0.000000 0.000000 0.000000 0.000000 -0.000000 -0.704703 92.757600 3.203630 89.346900 0.512178 1.416240 15.735700 0.000005 -0.000001 83.520000 87.553700 -74.815400 8.984550 -0.406207 -0.000000 -2.742980 -1.346960 17.379100 16.377300 -0.000001 -0.000001 0.296715 2.254010 6.458980 6.456720 -0.000001 -0.000000 2.913160 3.533560 19.287900 12.994200 -0.242716 4.980390 -86.618000 -6.578020 -62.712300 5.348090 -0.000007 -0.000001 -28.893500 -56.322900 -64.498400 24.328600 0.000019 0.000005 0.410188 28.439500 -0.861162 22.291600 -0.000001 0.000005 40.076600 4.471120 17.074800 12.994500 -0.242716 -4.980390 89.370100 1.974900 -72.306700 -5.348130 -0.000001 -0.000004 -63.116400 5.042550 -3.858000 -24.328900 0.000322 -0.000009 2.154420 7.959570 -15.205800 -22.291500 -0.000108 -0.000004 7.008990 5.222560 2.147130 -2.192480 -6.469440 -0.000000 -173.948000 -10.556700 3.093260 39.081100 -0.000007 -0.000012 0.027675 -0.115417 13.484000 40.985400 -0.000006 -0.000013 -0.102037 16.831200 -69.970000 11.754300 -0.000000 0.000003 -0.000767 0.179670 -9.288730 -2.192510 6.469440 -0.000001 176.565000 3.555990 -176.520000 -39.081100 -0.002282 -0.040193 0.036955 -0.148786 12.733000 -40.985400 0.000008 0.000006 -4.621840 2.804600 -70.259600 -11.754300 -0.000006 -0.000006 -0.012605 0.289835 -4.792400
0.000000 0.000000 0.000000 0.000000 0.000000 -0.000000 -0.683540 92.750700 3.193690 89.322200 0.509153 1.458350 15.735700 0.000005 -0.000001 83.580300 87.541900 -74.878900 8.984550 -0.406207 -0.000000 -2.719370 -1.342400 17.372900 16.377300 -0.000001 -0.000001 0.359077 2.288810 6.474730 6.456720 -0.000001 -0.000000 2.923110 3.563640 19.006200 12.994200 -0.242716 4.980390 -86.641600 -6.541370 -62.746000 5.348090 -0.000007 -0.000001 -28.706600 -56.246600 -64.216000 24.328600 0.000019 0.000005 0.424741 28.410900 -0.892534 22.291600 -0.000001 0.000005 40.181400 4.467940 17.126800 12.994500 -0.242716 -4.980390 89.389800 1.911250 -72.290800 -5.348130 -0.000001 -0.000004 -63.149000 4.916240 -3.777350 -24.328900 0.000322 -0.000009 2.185850 8.047350 -15.258000 -22.291500 -0.000108 -0.000004 7.004850 5.219820 2.217260 -2.192480 -6.469440 -0.000000 -173.947000 -10.510100 3.053090 39.081100 -0.000007 -0.000012 0.029014 -0.119526 13.644500 40.985400 -0.000006 -0.000013 -0.073939 16.745700 -70.089200 11.754300 -0.000000 0.000003 -0.000814 0.180350 -9.261120 -2.192510 6.469440 -0.000001 176.575000 3.595360 -176.504000 -39.081100 -0.002282 -0.040193 0.037942 -0.152566 12.780700 -40.985400 0.000008 0.000006 -4.552400 2.839050 -70.339000 -11.754300 -0.000006 -0.000006 -0.013066 0.292945 -4.664940
